<mxfile host="app.diagrams.net" modified="2024-03-18T02:56:10.716Z" agent="Mozilla/5.0 (X11; Ubuntu; Linux x86_64; rv:123.0) Gecko/20100101 Firefox/123.0" etag="hGeE6_kiACcxNjAJZK66" version="24.0.7" type="device">
  <diagram name="Page-1" id="90a13364-a465-7bf4-72fc-28e22215d7a0">
    <mxGraphModel dx="1912" dy="928" grid="1" gridSize="10" guides="1" tooltips="1" connect="1" arrows="1" fold="1" page="1" pageScale="1.5" pageWidth="827" pageHeight="1169" background="none" math="0" shadow="0">
      <root>
        <mxCell id="0" style=";html=1;" />
        <mxCell id="1" style=";html=1;" parent="0" />
        <mxCell id="92aZnivEr3lnGOnxTlvm-25" style="edgeStyle=none;rounded=0;orthogonalLoop=1;jettySize=auto;html=1;exitX=0.5;exitY=1;exitDx=0;exitDy=0;entryX=0.5;entryY=0;entryDx=0;entryDy=0;strokeColor=default;align=center;verticalAlign=middle;fontFamily=Helvetica;fontSize=11;fontColor=default;labelBackgroundColor=default;startArrow=classic;endArrow=classic;" edge="1" parent="1" source="3a17f1ce550125da-2" target="92aZnivEr3lnGOnxTlvm-22">
          <mxGeometry relative="1" as="geometry" />
        </mxCell>
        <mxCell id="92aZnivEr3lnGOnxTlvm-35" style="edgeStyle=none;rounded=0;orthogonalLoop=1;jettySize=auto;html=1;exitX=1;exitY=0.5;exitDx=0;exitDy=0;entryX=0;entryY=0.5;entryDx=0;entryDy=0;strokeColor=default;align=center;verticalAlign=middle;fontFamily=Helvetica;fontSize=11;fontColor=default;labelBackgroundColor=default;startArrow=classic;endArrow=classic;" edge="1" parent="1" source="3a17f1ce550125da-2" target="3a17f1ce550125da-10">
          <mxGeometry relative="1" as="geometry" />
        </mxCell>
        <mxCell id="3a17f1ce550125da-2" value="Flask Web App&lt;br&gt;&lt;div&gt;&lt;br&gt;&lt;/div&gt;&lt;div&gt;http://localhost:8000/&lt;br&gt;&lt;div style=&quot;color: #cccccc;background-color: #1f1f1f;font-family: &#39;Droid Sans Mono&#39;, &#39;monospace&#39;, monospace;font-weight: normal;font-size: 14px;line-height: 19px;white-space: pre;&quot;&gt;&lt;div&gt;&lt;span style=&quot;color: #cccccc;&quot;&gt;http://192.168.0.90:8000&lt;/span&gt;&lt;/div&gt;&lt;/div&gt;&lt;/div&gt;" style="whiteSpace=wrap;html=1;shadow=1;fontSize=18;fillColor=#f5f5f5;strokeColor=#666666;" parent="1" vertex="1">
          <mxGeometry x="440" y="443.5" width="220" height="166.5" as="geometry" />
        </mxCell>
        <mxCell id="3a17f1ce550125da-10" value="Rosbridge&lt;br&gt;WebSocket Server&lt;div&gt;&lt;br&gt;&lt;/div&gt;localhost:9090&lt;br&gt;192.168.0.90:9090" style="whiteSpace=wrap;html=1;shadow=1;fontSize=18;fillColor=#f5f5f5;strokeColor=#666666;" parent="1" vertex="1">
          <mxGeometry x="750" y="449.75" width="200" height="154" as="geometry" />
        </mxCell>
        <mxCell id="92aZnivEr3lnGOnxTlvm-4" value="Husky PC" style="text;strokeColor=none;fillColor=none;html=1;fontSize=24;fontStyle=1;verticalAlign=middle;align=center;" vertex="1" parent="1">
          <mxGeometry x="697.5" y="140" width="100" height="40" as="geometry" />
        </mxCell>
        <mxCell id="92aZnivEr3lnGOnxTlvm-37" style="edgeStyle=none;rounded=0;orthogonalLoop=1;jettySize=auto;html=1;entryX=1;entryY=0.5;entryDx=0;entryDy=0;strokeColor=default;align=center;verticalAlign=middle;fontFamily=Helvetica;fontSize=11;fontColor=default;labelBackgroundColor=default;startArrow=classic;endArrow=classic;" edge="1" parent="1" source="92aZnivEr3lnGOnxTlvm-12" target="3a17f1ce550125da-10">
          <mxGeometry relative="1" as="geometry" />
        </mxCell>
        <mxCell id="92aZnivEr3lnGOnxTlvm-12" value="ROS2 topics: &lt;br&gt;/cmd_vel&lt;br&gt;/battery_percentage&lt;br&gt;/driver/right/temperature&lt;br&gt;/driver/left/temperature&lt;br&gt;..." style="whiteSpace=wrap;html=1;shadow=1;fontSize=18;fillColor=#f5f5f5;strokeColor=#666666;" vertex="1" parent="1">
          <mxGeometry x="980" y="446.25" width="200" height="161" as="geometry" />
        </mxCell>
        <mxCell id="92aZnivEr3lnGOnxTlvm-17" value="" style="rounded=1;whiteSpace=wrap;html=1;fontFamily=Helvetica;fontSize=11;fontColor=default;labelBackgroundColor=default;fillColor=none;" vertex="1" parent="1">
          <mxGeometry x="370" y="420" width="360" height="510" as="geometry" />
        </mxCell>
        <mxCell id="92aZnivEr3lnGOnxTlvm-21" value="&lt;div style=&quot;font-size: 18px;&quot;&gt;Flask Web Application&lt;/div&gt;" style="text;strokeColor=none;fillColor=none;html=1;fontSize=11;fontStyle=1;verticalAlign=middle;align=center;fontFamily=Helvetica;fontColor=default;labelBackgroundColor=default;" vertex="1" parent="1">
          <mxGeometry x="426.25" y="810" width="247.5" height="170" as="geometry" />
        </mxCell>
        <mxCell id="92aZnivEr3lnGOnxTlvm-22" value="SQLite3 Database:&lt;br&gt;Battery: id, state of charge, timestamp&lt;br&gt;Motor left: id, temperature, timestamp&lt;br&gt;Motor right: id, temperature, timestamp&lt;br&gt;...&lt;br&gt;&lt;div&gt;&lt;br&gt;&lt;/div&gt;" style="whiteSpace=wrap;html=1;shadow=1;fontSize=18;fillColor=#f5f5f5;strokeColor=#666666;" vertex="1" parent="1">
          <mxGeometry x="390" y="690" width="320" height="161" as="geometry" />
        </mxCell>
        <mxCell id="92aZnivEr3lnGOnxTlvm-26" value="Web Video Server:&lt;div&gt;&amp;nbsp;stream of camera image&lt;br&gt;http://localhost:8080/stream_viewer?topic=/image_raw&lt;br&gt;&lt;/div&gt;" style="whiteSpace=wrap;html=1;shadow=1;fontSize=18;fillColor=#f5f5f5;strokeColor=#666666;" vertex="1" parent="1">
          <mxGeometry x="390" y="200" width="320" height="161" as="geometry" />
        </mxCell>
        <mxCell id="92aZnivEr3lnGOnxTlvm-38" value="User device: mobile phone, tablet, desktop PC" style="whiteSpace=wrap;html=1;shadow=1;fontSize=18;fillColor=#f5f5f5;strokeColor=#666666;" vertex="1" parent="1">
          <mxGeometry x="80" y="470" width="200" height="154" as="geometry" />
        </mxCell>
        <mxCell id="92aZnivEr3lnGOnxTlvm-44" style="edgeStyle=none;rounded=0;orthogonalLoop=1;jettySize=auto;html=1;exitX=1;exitY=0.5;exitDx=0;exitDy=0;entryX=0.012;entryY=0.614;entryDx=0;entryDy=0;entryPerimeter=0;strokeColor=default;align=center;verticalAlign=middle;fontFamily=Helvetica;fontSize=11;fontColor=default;labelBackgroundColor=default;startArrow=classic;endArrow=classic;" edge="1" parent="1" source="92aZnivEr3lnGOnxTlvm-38" target="3a17f1ce550125da-2">
          <mxGeometry relative="1" as="geometry" />
        </mxCell>
        <mxCell id="92aZnivEr3lnGOnxTlvm-45" value="Text" style="edgeLabel;html=1;align=center;verticalAlign=middle;resizable=0;points=[];fontFamily=Helvetica;fontSize=11;fontColor=default;labelBackgroundColor=default;" vertex="1" connectable="0" parent="92aZnivEr3lnGOnxTlvm-44">
          <mxGeometry x="0.022" y="-2" relative="1" as="geometry">
            <mxPoint x="1" as="offset" />
          </mxGeometry>
        </mxCell>
        <mxCell id="92aZnivEr3lnGOnxTlvm-46" value="&lt;font style=&quot;font-size: 14px;&quot;&gt;connect via browser&lt;/font&gt;" style="edgeLabel;html=1;align=center;verticalAlign=middle;resizable=0;points=[];fontFamily=Helvetica;fontSize=11;fontColor=default;labelBackgroundColor=default;" vertex="1" connectable="0" parent="92aZnivEr3lnGOnxTlvm-44">
          <mxGeometry x="0.072" y="-3" relative="1" as="geometry">
            <mxPoint x="-7" as="offset" />
          </mxGeometry>
        </mxCell>
        <mxCell id="92aZnivEr3lnGOnxTlvm-54" value="" style="endArrow=classic;html=1;rounded=0;strokeColor=default;align=center;verticalAlign=middle;fontFamily=Helvetica;fontSize=11;fontColor=default;labelBackgroundColor=default;anchorPointDirection=0;entryX=0.5;entryY=0;entryDx=0;entryDy=0;exitX=0.5;exitY=1;exitDx=0;exitDy=0;" edge="1" parent="1" source="92aZnivEr3lnGOnxTlvm-26" target="3a17f1ce550125da-2">
          <mxGeometry width="50" height="50" relative="1" as="geometry">
            <mxPoint x="470" y="320" as="sourcePoint" />
            <mxPoint x="540" y="400" as="targetPoint" />
          </mxGeometry>
        </mxCell>
        <mxCell id="92aZnivEr3lnGOnxTlvm-55" value="embedded" style="edgeLabel;html=1;align=center;verticalAlign=middle;resizable=0;points=[];fontFamily=Helvetica;fontSize=14;fontColor=default;labelBackgroundColor=default;" vertex="1" connectable="0" parent="92aZnivEr3lnGOnxTlvm-54">
          <mxGeometry x="0.0182" y="1" relative="1" as="geometry">
            <mxPoint y="-1" as="offset" />
          </mxGeometry>
        </mxCell>
        <mxCell id="92aZnivEr3lnGOnxTlvm-58" value="" style="rounded=0;whiteSpace=wrap;html=1;fontFamily=Helvetica;fontSize=11;fontColor=default;labelBackgroundColor=default;fillColor=none;metaEdit=1;" vertex="1" parent="1">
          <mxGeometry x="340" y="180" width="860" height="770" as="geometry" />
        </mxCell>
      </root>
    </mxGraphModel>
  </diagram>
</mxfile>
